<svg width="200" height="51" viewBox="0 0 200 51" fill="none" xmlns="http://www.w3.org/2000/svg">
<g clip-path="url(#clip0)">
<path d="M70.6874 0H27.8914V17.7183L36.5676 31.5146H33.2313L27.8869 23.0225L23.9795 16.8042L23.7483 16.4395C23.4135 15.9475 23.0243 15.4944 22.5879 15.0886C21.613 14.1613 20.4284 13.4798 19.1336 13.1012C17.8388 12.7225 16.4715 12.6579 15.1463 12.9127C13.8211 13.1674 12.5767 13.7342 11.5176 14.5654C10.4585 15.3966 9.61558 16.4679 9.05945 17.6896C8.50332 18.9113 8.25022 20.2476 8.32145 21.5865C8.39269 22.9254 8.78615 24.2278 9.46881 25.3844C10.1515 26.541 11.1034 27.5182 12.2448 28.2338C13.3862 28.9495 14.6838 29.3828 16.0286 29.4974C16.2644 29.4974 16.4819 29.5289 16.7403 29.5289C16.9987 29.5289 17.1936 29.5289 17.4429 29.4974L30.7155 50.6017H70.6829L54.7721 25.3099L70.6874 0ZM39.0471 14.053C38.3485 14.053 37.6657 13.8472 37.0849 13.4616C36.504 13.0759 36.0515 12.5279 35.7843 11.8867C35.5172 11.2455 35.4475 10.54 35.5841 9.85944C35.7207 9.1789 36.0575 8.55391 36.5518 8.06354C37.0461 7.57316 37.6757 7.23945 38.361 7.10462C39.0463 6.96978 39.7564 7.03989 40.4016 7.30606C41.0468 7.57224 41.598 8.02252 41.9854 8.59994C42.3729 9.17736 42.5792 9.85597 42.5783 10.5499C42.5771 11.4794 42.2046 12.3704 41.5425 13.0273C40.8804 13.6841 39.9829 14.053 39.0471 14.053Z" fill="white"/>
<path d="M7.69015 4.08384L5.29138 5.57275L9.41342 12.1254L11.8122 10.6365L7.69015 4.08384Z" fill="white"/>
<path d="M18.1637 3.30518H15.3351V9.62702H18.1637V3.30518Z" fill="white"/>
<path d="M1.26041 12.0652L0.0204468 14.5906L5.74065 17.3619L6.98062 14.8365L1.26041 12.0652Z" fill="white"/>
<path d="M95.7866 20.4379H79.4678V0.220592H86.9745V14.1205H96.113C99.5127 14.1205 102.822 13.6703 104.812 12.8913V19.1186C102.826 19.9561 99.2951 20.4379 95.7866 20.4379ZM80.5558 23.1395H114.018V37.8725H106.426V29.5559H80.5558V23.1395ZM118.433 13.3596H114.018V21.8202H106.557V-0.0180664H114.018V6.16421H118.433V13.3596Z" fill="white"/>
<path d="M144.593 21.487H130.156V29.0336H138.315C141.892 29.0336 145.776 28.2862 148.07 27.2325V33.9011C145.776 35.0403 141.756 35.7022 138.002 35.7022H122.731V14.9086H137.164V7.56008H122.658V0.89604H144.602L144.593 21.487ZM157.526 37.4538H150.065V0H157.526V37.4538Z" fill="white"/>
<path d="M176.927 25.9402C177.106 25.9417 177.284 25.9341 177.462 25.9177C174.402 32.172 169.724 35.6571 164.176 35.6976V28.2456C167.032 27.9259 169.425 25.643 171.107 21.8472C171.533 23.0429 172.321 24.0783 173.363 24.8112C174.405 25.544 175.65 25.9384 176.927 25.9402Z" fill="white"/>
<path d="M189.361 0.87793V7.67708H181.279C181.223 10.1118 181.027 12.5413 180.689 14.9535C179.598 14.1196 178.256 13.6743 176.879 13.689C175.502 13.7037 174.17 14.1775 173.097 15.0345C173.506 12.6021 173.732 10.1428 173.772 7.67708H165.255V0.87793H189.361Z" fill="white"/>
<path d="M190.676 32.6313L184.688 35.5355L177.748 24.5128C177.483 24.5615 177.214 24.5871 176.945 24.5894C176.034 24.5893 175.142 24.332 174.373 23.8475C173.604 23.363 172.989 22.6712 172.6 21.8528C172.211 21.0345 172.065 20.1233 172.178 19.2254C172.291 18.3275 172.658 17.48 173.237 16.7816C173.301 16.7006 173.373 16.624 173.441 16.5475C173.935 16.0259 174.54 15.6212 175.212 15.3633C175.884 15.1053 176.605 15.0008 177.324 15.0575C178.042 15.1141 178.738 15.3304 179.361 15.6905C179.983 16.0505 180.516 16.545 180.921 17.1374C180.934 17.1517 180.945 17.1685 180.952 17.1869L181.097 17.412C181.095 17.4193 181.095 17.4272 181.097 17.4345L182.63 19.866L190.676 32.6313Z" fill="white"/>
<path d="M200 0H192.539V37.4493H200V0Z" fill="white"/>
<path d="M88.4885 45.446H79.3726V45.9954H88.4885V45.446Z" fill="white"/>
<path d="M80.6736 48.9088H87.7995V46.9231H80.0526V47.4769H87.2011V48.3685H80.0752V50.3857H87.9989V49.8364H80.6736V48.9088Z" fill="white"/>
<path d="M83.7696 43.447L87.8493 44.7978L88.076 44.2439L84.1595 42.9652C84.2957 42.7307 84.385 42.4723 84.4224 42.2042H87.7859V41.6414H80.0798V42.2042H83.824C83.5793 43.492 81.7252 44.1224 79.9619 44.1764H79.8849V44.7392H79.9665C81.5893 44.6717 83.0036 44.1989 83.7696 43.447Z" fill="white"/>
<path d="M97.4547 43.6451H95.0341C95.1331 43.3027 95.1805 42.9476 95.1746 42.5914V41.7449H89.9481V42.3077H94.5763V42.5914C94.5763 44.5321 93.1302 45.4371 90.0433 45.4371H89.9708V46.009H90.0433C92.5863 46.009 94.1502 45.4191 94.8256 44.2079H97.4774V46.2836H98.0531V41.4297H97.4547V43.6451Z" fill="white"/>
<path d="M97.4547 47.8955H91.1086V46.5852H90.5147V50.3765H98.0531V46.5852H97.4547V47.8955ZM91.1086 49.8272V48.4448H97.4547V49.8272H91.1086Z" fill="white"/>
<path d="M104.127 45.0591H103.529V49.4988H99.8028V50.0616H108.919V49.4988H104.127V45.0591Z" fill="white"/>
<path d="M107.627 47.9406H108.225V41.8394H100.428V42.4022H107.627V47.9406Z" fill="white"/>
<path d="M116.208 41.7268C114.499 41.7268 113.488 43.2847 113.488 45.9053C113.488 48.5259 114.508 50.0839 116.208 50.0839C117.908 50.0839 118.928 48.5214 118.928 45.9053C118.928 43.2892 117.917 41.7268 116.208 41.7268ZM118.329 45.9053C118.329 48.1567 117.536 49.5075 116.208 49.5075C114.88 49.5075 114.086 48.1567 114.086 45.9053C114.086 43.654 114.88 42.3031 116.208 42.3031C117.536 42.3031 118.329 43.6405 118.329 45.9053Z" fill="white"/>
<path d="M121.38 41.4297H120.772V50.5882H121.38V41.4297Z" fill="white"/>
<path d="M128.03 47.3822H131.819V46.8194H124.503V44.8922H131.661V41.8484H123.905V42.4112H131.062V44.3294H123.905V47.3822H127.431V49.4985H123.207V50.0614H132.318V49.4985H128.03V47.3822Z" fill="white"/>
<path d="M134.739 47.7695H134.14V50.3856H142.037V49.8273H134.739V47.7695Z" fill="white"/>
<path d="M133.419 46.8331H137.68V48.6567H138.274V46.8331H142.535V46.2703H133.419V46.8331Z" fill="white"/>
<path d="M137.975 45.3335C139.815 45.3335 141.96 44.8247 141.96 43.3928C141.96 41.961 139.815 41.4521 137.975 41.4521C136.135 41.4521 133.991 41.961 133.991 43.3928C133.991 44.8247 136.13 45.3335 137.975 45.3335ZM137.975 42.0105C139.602 42.0105 141.352 42.4608 141.352 43.3928C141.352 44.3249 139.602 44.7752 137.975 44.7752C136.348 44.7752 134.598 44.3249 134.598 43.3928C134.598 42.4608 136.348 42.0105 137.975 42.0105Z" fill="white"/>
<path d="M150.314 42.4111H152.961V41.8528H147.032V42.4111H149.729C149.684 46.3195 148.61 48.9851 146.923 49.3859H146.864V49.9577H146.955C148.315 49.674 149.299 48.4313 149.856 46.3555L152.789 49.8722L153.242 49.5165L149.997 45.6756C150.205 44.5997 150.311 43.5068 150.314 42.4111Z" fill="white"/>
<path d="M154.992 41.4297H154.394V50.5882H154.992V41.4297Z" fill="white"/>
<path d="M165.205 41.4297H164.606V46.9816H165.205V41.4297Z" fill="white"/>
<path d="M157.585 48.026H164.606V50.5025H165.205V47.4631H157.585V48.026Z" fill="white"/>
<path d="M160.014 44.379L163.061 46.5223L163.419 46.0721L160.246 43.8567C160.513 43.1579 160.649 42.416 160.645 41.6684V41.5964L160.046 41.5693V41.6504C160.046 43.8522 158.8 45.6623 157.018 46.0495H156.959V46.6214H157.05C157.683 46.4951 158.278 46.2276 158.792 45.8392C159.306 45.4507 159.724 44.9514 160.014 44.379Z" fill="white"/>
<path d="M175.676 41.4297H175.078V50.5882H175.676V41.4297Z" fill="white"/>
<path d="M172.952 45.4461H171.442C171.37 42.9786 170.663 41.7268 169.352 41.7268C167.961 41.7268 167.258 43.1317 167.258 45.9054C167.258 48.679 167.961 50.0839 169.352 50.0839C170.744 50.0839 171.424 48.7106 171.447 46.0089H172.952V50.4306H173.55V41.4927H172.952V45.4461ZM169.352 49.5211C168.346 49.5211 167.857 48.3368 167.857 45.9189C167.857 43.5009 168.346 42.3167 169.352 42.3167C170.359 42.3167 170.848 43.5009 170.848 45.9189C170.848 48.3368 170.359 49.5211 169.352 49.5211Z" fill="white"/>
<path d="M188.35 41.4297H187.752V46.8735H188.35V44.2169H189.787V43.654H188.35V41.4297Z" fill="white"/>
<path d="M180.839 47.9181H187.752V50.5026H188.35V47.3552H180.839V47.9181Z" fill="white"/>
<path d="M186.999 45.7614L187.045 45.7389V45.14L186.936 45.1896C186.283 45.4957 185.028 45.6714 183.495 45.6714H181.229V41.6909H180.631V46.2432H183.414C185.05 46.2432 186.351 46.0676 186.999 45.7614Z" fill="white"/>
<path d="M191.056 47.9181H197.969V50.5026H198.568V47.3552H191.056V47.9181Z" fill="white"/>
<path d="M198.568 43.654V41.4297H197.969V46.8735H198.568V44.2169H200V43.654H198.568Z" fill="white"/>
<path d="M197.217 45.7614L197.258 45.7389V45.14L197.149 45.1896C196.496 45.4957 195.245 45.6714 193.708 45.6714H191.442V41.6909H190.843V46.2432H193.627C195.268 46.2432 196.569 46.0676 197.217 45.7614Z" fill="white"/>
</g>
<defs>
<clipPath id="clip0">
<rect width="200" height="50.5882" fill="white"/>
</clipPath>
</defs>
</svg>
